<svg width="41" height="40" viewBox="0 0 41 40" fill="none" xmlns="http://www.w3.org/2000/svg">
<path d="M23.1538 10.3076H10.7692C9.79211 10.3076 9 11.203 9 12.3076V16.3076C9 17.4122 9.79211 18.3076 10.7692 18.3076H23.1538C24.1309 18.3076 24.923 17.4122 24.923 16.3076V12.3076C24.923 11.203 24.1309 10.3076 23.1538 10.3076Z" stroke="#2C2C2C" stroke-width="1.5" stroke-linecap="round" stroke-linejoin="round"/>
<path d="M30.2319 21.6921H17.8473C16.8702 21.6921 16.0781 22.5876 16.0781 23.6921V27.6921C16.0781 28.7967 16.8702 29.6921 17.8473 29.6921H30.2319C31.209 29.6921 32.0011 28.7967 32.0011 27.6921V23.6921C32.0011 22.5876 31.209 21.6921 30.2319 21.6921Z" stroke="#2C2C2C" stroke-width="1.5" stroke-linecap="round" stroke-linejoin="round"/>
</svg>
