<svg width="41" height="40" viewBox="0 0 41 40" fill="none" xmlns="http://www.w3.org/2000/svg">
<path d="M8.5 10.1143H11.9292L16.0426 25.8859H29.0708L32.5 14.2284H13.2999" stroke="#2C2C2C" stroke-width="1.5" stroke-linecap="round"/>
<path d="M15.3559 25.8857C16.4971 25.8857 17.4228 26.7812 17.4228 27.8852C17.4228 28.9909 16.4971 29.8857 15.3559 29.8857C14.2142 29.8857 13.2891 28.9909 13.2891 27.8852C13.2891 26.7812 14.2142 25.8857 15.3559 25.8857ZM25.6416 25.8857C26.7828 25.8857 27.7085 26.7812 27.7085 27.8852C27.7085 28.9909 26.7828 29.8857 25.6416 29.8857C24.4999 29.8857 23.5748 28.9909 23.5748 27.8852C23.5748 26.7812 24.4999 25.8857 25.6416 25.8857Z" stroke="#2C2C2C" stroke-width="1.5"/>
</svg>
